#!OML:ASF C:\ViconDB\ViconDB\414\Spring2016\041811\Spring2016.ASF
:FULLY-SPECIFIED
:DEGREES
152
root 10.9654 18.0814 -6.5285 -181.081 -0.889455 -177.064
lowerback 4.27514 2.30681 2.92976
upperback 2.52612 3.02252 1.71295
thorax 0.263528 1.46212 -0.00023387
lowerneck -9.66357 -4.39897 -11.069
upperneck 13.8802 -7.62675 16.5066
head 6.86601 -3.34641 6.52149
rclavicle 7.97623e-015 -1.82882e-014
rhumerus -32.9932 -11.2677 -86.7758
rradius 37.4528
rwrist 34.8327
rhand -34.8344 -14.6849
rfingers 7.12502
rthumb -7.98494 -44.514
lclavicle 7.97623e-015 -1.82882e-014
lhumerus -41.1771 3.90737 86.1559
lradius 22.2229
lwrist -36.0609
lhand -27.4036 15.6373
lfingers 7.12502
lthumb -0.809899 45.6155
rfemur 147.104 77.2846 -174.234
rtibia 33.4436
rfoot -92.5968 -42.4686
rtoes 5.1684e-014
lfemur -27.6109 3.81254 -13.2477
ltibia 42.6894
lfoot -17.3346 8.27519
ltoes 2.68359e-014
153
root 10.9695 18.0864 -6.65151 -180.993 -0.790428 -177.03
lowerback 4.13518 2.29873 2.98221
upperback 2.53109 3.01033 1.65695
thorax 0.352197 1.45935 -0.080056
lowerneck -9.72445 -4.3564 -10.9104
upperneck 13.912 -7.56523 16.3776
head 6.86659 -3.31275 6.45547
rclavicle 3.17062e-014 3.57812e-015
rhumerus -32.648 -11.4312 -86.8003
rradius 37.4019
rwrist 34.9699
rhand -34.6755 -14.4913
rfingers 7.12502
rthumb -7.83158 -44.3262
lclavicle 3.17062e-014 3.57812e-015
lhumerus -41.32 4.07043 85.9766
lradius 22.1359
lwrist -36.0461
lhand -27.349 15.6019
lfingers 7.12502
lthumb -0.757159 45.5803
rfemur 144.227 78.2833 -177.229
rtibia 33.1484
rfoot -93.8657 -41.7822
rtoes -4.85035e-014
lfemur -27.9268 3.34239 -13.1577
ltibia 40.5219
lfoot -17.059 7.52158
ltoes -4.57205e-014
154
root 10.9731 18.0952 -6.776 -180.87 -0.708122 -176.92
lowerback 3.93223 2.38285 3.11163
upperback 2.51584 3.1203 1.66704
thorax 0.458966 1.51768 -0.136577
lowerneck -9.6403 -4.40766 -10.9357
upperneck 13.8687 -7.6183 16.3217
head 6.84441 -3.34555 6.43521
rclavicle -6.40584e-014 -3.69739e-014
rhumerus -32.3811 -11.5366 -86.651
rradius 37.3559
rwrist 34.9501
rhand -34.8289 -14.594
rfingers 7.12502
rthumb -7.97964 -44.4234
lclavicle -6.40584e-014 -3.69739e-014
lhumerus -41.4748 4.31373 85.8437
lradius 22.1204
lwrist -36.0343
lhand -27.2191 15.7098
lfingers 7.12502
lthumb -0.631662 45.6887
rfemur 141.787 78.8901 -179.726
rtibia 32.7794
rfoot -94.6029 -41.4922
rtoes 1.4074e-013
lfemur -28.2813 2.70152 -12.9279
ltibia 38.4149
lfoot -16.5845 6.61603
ltoes 2.3059e-014
155
root 10.978 18.1057 -6.90169 -180.697 -0.605214 -176.843
lowerback 3.67906 2.42821 3.17171
upperback 2.48791 3.17612 1.67371
thorax 0.575882 1.54913 -0.153973
lowerneck -9.68105 -4.44007 -10.9884
upperneck 13.9749 -7.64905 16.2439
head 6.8885 -3.36312 6.41609
rclavicle -5.9859e-014 -3.29983e-014
rhumerus -32.1528 -11.8257 -86.4316
rradius 37.3807
rwrist 35.3081
rhand -34.6277 -14.347
rfingers 7.12502
rthumb -7.78545 -44.1837
lclavicle -5.9859e-014 -3.29983e-014
lhumerus -41.663 4.5237 85.6892
lradius 22.0609
lwrist -36.3106
lhand -27.0875 15.5544
lfingers 7.12502
lthumb -0.504558 45.5335
rfemur 139.675 79.3207 -181.955
rtibia 32.3846
rfoot -95.1217 -41.1345
rtoes 7.39479e-014
lfemur -28.6843 2.19182 -12.7738
ltibia 36.4014
lfoot -15.9265 5.6389
ltoes 1.24042e-013
156
root 10.9777 18.1147 -7.02851 -180.638 -0.417301 -176.812
lowerback 3.53235 2.4948 3.22885
upperback 2.50137 3.25982 1.67245
thorax 0.677233 1.5932 -0.181847
lowerneck -9.64436 -4.45084 -11.0635
upperneck 13.9648 -7.64456 16.2225
head 6.87986 -3.3662 6.42284
rclavicle -1.90088e-014 -3.22031e-014
rhumerus -31.8452 -11.5529 -86.4136
rradius 37.303
rwrist 34.946
rhand -34.6185 -14.3074
rfingers 7.12502
rthumb -7.77652 -44.1444
lclavicle -1.90088e-014 -3.22031e-014
lhumerus -41.7823 4.91665 85.6279
lradius 22.0248
lwrist -36.1473
lhand -27.0863 15.6468
lfingers 7.12502
lthumb -0.503459 45.626
rfemur 137.413 79.4065 -184.423
rtibia 31.914
rfoot -95.3291 -40.7307
rtoes 1.39149e-013
lfemur -28.9175 1.63875 -12.6083
ltibia 34.5172
lfoot -15.373 4.42025
ltoes -4.92986e-014
157
root 10.9804 18.121 -7.15688 -180.494 -0.380099 -176.639
lowerback 3.28638 2.51103 3.35332
upperback 2.47047 3.27631 1.70237
thorax 0.788841 1.60482 -0.209879
lowerneck -9.61461 -4.4531 -11.0826
upperneck 14.0236 -7.65708 16.2117
head 6.89495 -3.37555 6.42267
rclavicle 4.08254e-014 -4.57205e-015
rhumerus -31.6199 -11.6567 -86.3176
rradius 37.283
rwrist 34.954
rhand -34.5559 -14.4431
rfingers 7.12502
rthumb -7.71613 -44.2823
lclavicle 4.08254e-014 -4.57205e-015
lhumerus -41.9191 4.79268 85.6869
lradius 21.8906
lwrist -35.8992
lhand -27.1906 15.6099
lfingers 7.12502
lthumb -0.604201 45.5888
rfemur 135.471 79.5539 -186.421
rtibia 31.4198
rfoot -95.421 -40.4197
rtoes -3.65764e-014
lfemur -29.3289 0.862343 -12.2573
ltibia 32.7838
lfoot -14.8665 3.2889
ltoes -1.19271e-013
158
root 10.9779 18.129 -7.28634 -180.375 -0.288271 -176.489
lowerback 3.0599 2.58315 3.53374
upperback 2.44078 3.36747 1.73727
thorax 0.896344 1.65397 -0.265788
lowerneck -9.44578 -4.51434 -11.1677
upperneck 13.9495 -7.71028 16.1293
head 6.84882 -3.41637 6.40444
rclavicle -1.43622e-014 8.94531e-015
rhumerus -31.4344 -11.6856 -86.1505
rradius 37.259
rwrist 34.8432
rhand -34.702 -14.6519
rfingers 7.12502
rthumb -7.85719 -44.4859
lclavicle -1.43622e-014 8.94531e-015
lhumerus -42.0791 5.08794 85.6021
lradius 21.7723
lwrist -36.2006
lhand -27.0995 15.6931
lfingers 7.12502
lthumb -0.516176 45.6722
rfemur 133.997 79.444 -188.001
rtibia 30.8907
rfoot -95.3581 -40.1886
rtoes 6.52014e-014
lfemur -29.6465 -0.120476 -11.8333
ltibia 31.227
lfoot -14.3577 2.36188
ltoes -1.41535e-013
159
root 10.9744 18.1342 -7.41601 -180.331 -0.151651 -176.314
lowerback 2.87627 2.57811 3.68383
upperback 2.50071 3.34749 1.77279
thorax 1.0672 1.64651 -0.301423
lowerneck -9.52608 -4.48182 -11.1234
upperneck 13.9851 -7.64613 16.0368
head 6.8595 -3.3829 6.37147
rclavicle -3.18055e-015 5.56597e-015
rhumerus -31.0233 -11.8748 -86.0234
rradius 37.0778
rwrist 35.3245
rhand -34.543 -14.4608
rfingers 7.12502
rthumb -7.70365 -44.3005
lclavicle -3.18055e-015 5.56597e-015
lhumerus -42.1397 5.20815 85.5312
lradius 21.7664
lwrist -35.9735
lhand -26.9727 15.353
lfingers 7.12502
lthumb -0.393718 45.3323
rfemur 133.943 78.7158 -188.119
rtibia 30.3289
rfoot -94.5964 -40.0735
rtoes -3.65764e-014
lfemur -29.8817 -1.52741 -11.2262
ltibia 29.8444
lfoot -14.0172 1.92375
ltoes 1.7175e-013
160
root 10.9725 18.1399 -7.54461 -180.191 -0.118387 -176.094
lowerback 2.70083 2.57757 3.84375
upperback 2.43151 3.34307 1.84464
thorax 1.0994 1.6459 -0.309997
lowerneck -9.42764 -4.46841 -11.0701
upperneck 13.9975 -7.60819 15.8604
head 6.83055 -3.37541 6.30725
rclavicle -1.31695e-015 -1.63003e-014
rhumerus -30.8808 -11.7115 -85.9449
rradius 37.0679
rwrist 35.1358
rhand -34.6161 -14.4086
rfingers 7.12502
rthumb -7.7742 -44.2457
lclavicle -1.31695e-015 -1.63003e-014
lhumerus -42.3664 5.39718 85.5168
lradius 21.7397
lwrist -36.3364
lhand -26.892 15.3397
lfingers 7.12502
lthumb -0.315732 45.3192
rfemur 134.715 77.9169 -187.361
rtibia 29.7479
rfoot -93.5559 -39.8619
rtoes 1.20861e-013
lfemur -30.2906 -2.85405 -10.565
ltibia 28.6299
lfoot -13.4417 1.70353
ltoes -1.25632e-013
161
root 10.9656 18.1483 -7.67432 -180.03 -0.00733938 -175.954
lowerback 2.50556 2.61641 4.04145
upperback 2.38398 3.39278 1.81754
thorax 1.17522 1.67588 -0.439376
lowerneck -9.33277 -4.49047 -11.1
upperneck 13.9711 -7.64845 15.8908
head 6.81334 -3.40024 6.31936
rclavicle 4.20927e-014 -1.31198e-014
rhumerus -30.6431 -11.7105 -85.8546
rradius 36.8815
rwrist 35.3654
rhand -34.6182 -14.5456
rfingers 7.12502
rthumb -7.77629 -44.3826
lclavicle 4.20927e-014 -1.31198e-014
lhumerus -42.5385 5.13228 85.6283
lradius 21.7694
lwrist -36.2378
lhand -26.7789 15.5447
lfingers 7.12502
lthumb -0.206515 45.5243
rfemur 136.639 76.6455 -185.559
rtibia 29.1311
rfoot -92.0361 -39.8497
rtoes -1.59028e-015
lfemur -30.7092 -4.541 -9.82207
ltibia 27.6058
lfoot -13.1714 2.12948
ltoes -1.46306e-013
162
root 10.9588 18.1503 -7.80456 -179.981 0.0880051 -175.829
lowerback 2.41829 2.42711 4.15763
upperback 2.39346 3.43962 1.81992
thorax 1.23369 1.83054 -0.495275
lowerneck -9.36063 -4.46975 -11.0591
upperneck 14.0178 -7.61128 15.8049
head 6.82247 -3.38293 6.28723
rclavicle 3.49116e-014 -4.17448e-015
rhumerus -30.3362 -11.8042 -85.7931
rradius 36.7363
rwrist 35.3198
rhand -34.7086 -14.4753
rfingers 7.12502
rthumb -7.86357 -44.309
lclavicle 3.49116e-014 -4.17448e-015
lhumerus -42.6109 5.29645 85.606
lradius 21.8296
lwrist -36.0564
lhand -26.6031 15.5506
lfingers 7.12502
lthumb -0.0367547 45.5304
rfemur 137.962 75.2339 -184.335
rtibia 28.5423
rfoot -90.5246 -39.7182
rtoes -1.59028e-015
lfemur -30.9953 -6.40397 -9.07675
ltibia 26.7292
lfoot -13.1019 3.22506
ltoes -1.62208e-013
